<?xml version="1.0" encoding="utf-8"?><svg viewBox="0 0 502.66 502.66" xmlns="http://www.w3.org/2000/svg" xmlns:xlink="http://www.w3.org/1999/xlink"><style>:root>svg{display:none}:root>svg:target{display:block}</style><svg viewBox="0 0 8 12" id="arrow" xmlns="http://www.w3.org/2000/svg"><path d="M4.667 6L0 1.333 1.333 0l6 6-6 6L0 10.667 4.667 6z"/></svg><svg viewBox="0 0 23 11" id="arrowwww" xmlns="http://www.w3.org/2000/svg"><path d="M5.5.984a1 1 0 01.71 1.71L2.9 5.984l3.18 3.31a1 1 0 11-1.42 1.41l-3.86-4a1 1 0 010-1.4l4-4a1 1 0 01.7-.32z"/><path stroke="#fff" stroke-width="2" stroke-linecap="round" d="M3 5.984h19"/></svg><svg viewBox="0 0 31 30" id="ate" xmlns="http://www.w3.org/2000/svg"><path d="M1.981.124l11.352 11.353-4.78 4.78L1.98 9.685a6.76 6.76 0 010-9.56h.002zM18.96 14.216l-1.444 1.444 11.95 11.95L27.078 30l-11.95-11.949L3.175 30l-2.39-2.39L16.57 11.827c-.994-2.463.034-6.009 2.738-8.716 3.3-3.3 7.849-4.102 10.159-1.792 2.31 2.31 1.507 6.859-1.792 10.158-2.707 2.707-6.253 3.735-8.715 2.74z"/></svg><svg viewBox="0 0 16 16" id="clock" xmlns="http://www.w3.org/2000/svg"><path d="M8 16A8 8 0 118 0a8 8 0 010 16zm0-1.6A6.4 6.4 0 108 1.6a6.4 6.4 0 000 12.8zM8.8 8H12v1.6H7.2V4h1.6v4z"/></svg><svg viewBox="0 0 42 30" id="delivery" xmlns="http://www.w3.org/2000/svg"><path d="M14.928 24.366a6.56 6.56 0 01-12.988 0H0V1.873A1.874 1.874 0 011.874 0h26.24a1.874 1.874 0 011.874 1.874v3.749h5.623l5.623 7.602v11.14H37.42a6.56 6.56 0 01-12.989 0h-9.503zM26.24 3.748H3.749v15.087a6.56 6.56 0 0110.614 1.78h10.634a6.612 6.612 0 011.243-1.78V3.75zm3.748 11.245h7.497v-.534l-3.763-5.089h-3.734v5.623zm.937 11.246a2.812 2.812 0 100-5.625 2.812 2.812 0 000 5.625zm-19.68-2.812a2.81 2.81 0 10-5.62 0 2.81 2.81 0 005.62 0z"/></svg><svg viewBox="0 0 27 30" id="eat" xmlns="http://www.w3.org/2000/svg"><path d="M27 0v30h-3V18h-4.5V7.5A7.5 7.5 0 0127 0zM9 17.85V30H6V17.85a7.503 7.503 0 01-6-7.35v-9h3V12h3V1.5h3V12h3V1.5h3v9a7.503 7.503 0 01-6 7.35z"/></svg><svg viewBox="0 0 7 13" id="fb" xmlns="http://www.w3.org/2000/svg"><path d="M4.55 7.475h1.625l.65-2.6H4.55v-1.3c0-.67 0-1.3 1.3-1.3h.975V.091A18.308 18.308 0 004.968 0C3.203 0 1.95 1.077 1.95 3.055v1.82H0v2.6h1.95V13h2.6V7.475z"/></svg><svg viewBox="0 0 502.664 502.664" id="icon" xmlns="http://www.w3.org/2000/svg"><path d="M153.821 358.226L0 274.337v-46.463l153.821-83.414v54.574L46.636 250.523l107.185 53.431v54.272zM180.094 387.584L282.103 115.08h32.227L212.084 387.584h-31.99zM348.843 358.226v-54.272l107.164-52.999-107.164-52.59v-53.927l153.821 83.522v46.183l-153.821 84.083z"/></svg><svg viewBox="0 0 13 13" id="instagram" xmlns="http://www.w3.org/2000/svg"><path d="M6.5 4.55a1.95 1.95 0 100 3.9 1.95 1.95 0 000-3.9zm0-1.3a3.25 3.25 0 110 6.5 3.25 3.25 0 010-6.5zm4.225-.163a.812.812 0 11-1.625 0 .812.812 0 011.625 0zM6.5 1.3c-1.608 0-1.87.005-2.619.038-.51.024-.851.092-1.169.216-.282.109-.485.24-.702.456-.203.197-.36.437-.457.702-.124.319-.192.66-.215 1.17-.034.717-.038.968-.038 2.618 0 1.608.005 1.87.038 2.619.024.509.092.851.215 1.168.11.283.24.486.456.702.22.218.423.349.702.457.321.124.663.193 1.17.216.718.034.969.038 2.619.038 1.608 0 1.87-.005 2.619-.038.508-.024.85-.092 1.168-.215.281-.11.486-.24.702-.456a1.88 1.88 0 00.457-.702c.124-.32.193-.663.216-1.17.034-.718.038-.969.038-2.619 0-1.608-.005-1.87-.038-2.619-.024-.508-.092-.851-.216-1.169a1.892 1.892 0 00-.457-.702 1.874 1.874 0 00-.702-.457c-.318-.124-.66-.192-1.168-.215C8.4 1.304 8.15 1.3 6.5 1.3zm0-1.3c1.766 0 1.986.006 2.68.039.692.032 1.163.141 1.578.302.429.165.79.389 1.151.75.33.325.587.718.75 1.152.16.414.27.885.302 1.578.03.693.039.913.039 2.679 0 1.766-.007 1.986-.039 2.68-.033.692-.142 1.163-.302 1.578a3.174 3.174 0 01-.75 1.151c-.325.33-.718.586-1.152.75-.414.16-.885.27-1.578.302-.693.03-.913.039-2.679.039-1.766 0-1.986-.007-2.68-.039-.692-.033-1.163-.142-1.577-.302a3.178 3.178 0 01-1.152-.75 3.187 3.187 0 01-.75-1.152C.18 10.344.071 9.873.04 9.18.009 8.486 0 8.266 0 6.5c0-1.766.006-1.986.039-2.68.032-.692.141-1.163.302-1.577.163-.435.419-.828.75-1.152.324-.331.718-.587 1.152-.75C2.657.18 3.128.071 3.82.04 4.514.009 4.734 0 6.5 0z"/></svg><svg viewBox="0 0 14 13" id="linkedin" xmlns="http://www.w3.org/2000/svg"><path d="M2.889 1.445A1.444 1.444 0 110 1.444a1.444 1.444 0 012.889.001zm.043 2.513H.043V13h2.89V3.958zm4.564 0H4.622V13h2.845V8.255c0-2.643 3.445-2.888 3.445 0V13h2.853V7.273c0-4.456-5.099-4.29-6.298-2.101l.03-1.214z"/></svg><svg viewBox="0 0 14 16" id="local" xmlns="http://www.w3.org/2000/svg"><path d="M6.627 16l-4.686-4.686a6.628 6.628 0 119.373 0L6.627 16zm3.646-5.728a5.155 5.155 0 10-7.29 0l3.644 3.646 3.646-3.646zM6.627 8.1a1.473 1.473 0 110-2.945 1.473 1.473 0 010 2.945z"/></svg><svg viewBox="0 0 23 11" id="nextArrow" xmlns="http://www.w3.org/2000/svg"><path d="M17.5 10.016a1 1 0 01-.71-1.71l3.31-3.29-3.18-3.31a1 1 0 111.42-1.41l3.86 4a1 1 0 010 1.4l-4 4a1 1 0 01-.7.32z"/><path stroke="#F16214" stroke-width="2" stroke-linecap="round" d="M20 5.016H1"/></svg><svg viewBox="0 0 23 11" id="prevArrow" xmlns="http://www.w3.org/2000/svg"><path d="M5.5.984a1 1 0 01.71 1.71L2.9 5.984l3.18 3.31a1 1 0 11-1.42 1.41l-3.86-4a1 1 0 010-1.4l4-4a1 1 0 01.7-.32z"/><path stroke="#fff" stroke-width="2" stroke-linecap="round" d="M3 5.984h19"/></svg><svg viewBox="0 0 13 13" id="star" xmlns="http://www.w3.org/2000/svg"><path d="M6.849 10.727a1 1 0 00-.977 0l-2.168 1.214a1 1 0 01-1.47-1.067l.485-2.438a1 1 0 00-.302-.929L.592 5.82a1 1 0 01.56-1.728L3.622 3.8a1 1 0 00.79-.575L5.452.968a1 1 0 011.817 0l1.04 2.257A1 1 0 009.1 3.8l2.468.292a1 1 0 01.561 1.728l-1.825 1.687a1 1 0 00-.302.93l.485 2.437a1 1 0 01-1.47 1.067L6.85 10.727z"/></svg><svg viewBox="0 0 16 16" id="tel" xmlns="http://www.w3.org/2000/svg"><path d="M5.659 6.828a9.383 9.383 0 003.513 3.513l.785-1.1a.889.889 0 011.15-.263c1.258.687 2.646 1.1 4.074 1.212a.889.889 0 01.819.886v3.967a.89.89 0 01-.798.884c-.471.049-.946.073-1.424.073C6.168 16 0 9.831 0 2.222 0 1.744.024 1.27.073.798A.889.889 0 01.957 0h3.967a.889.889 0 01.886.819 10.153 10.153 0 001.212 4.073.889.889 0 01-.263 1.15l-1.1.786zm-2.242-.584l1.689-1.206a11.92 11.92 0 01-.975-3.26H1.787a12.3 12.3 0 00-.008.444c-.001 6.628 5.371 12 11.999 12 .148 0 .297-.002.444-.009V11.87a11.92 11.92 0 01-3.26-.975l-1.206 1.69a11.06 11.06 0 01-1.412-.668l-.052-.029a11.16 11.16 0 01-4.18-4.18l-.028-.051a11.059 11.059 0 01-.667-1.412z"/></svg><svg viewBox="0 0 16 13" id="twitter" xmlns="http://www.w3.org/2000/svg"><path d="M15.988 1.543a6.577 6.577 0 01-1.884.516A3.291 3.291 0 0015.547.244a6.555 6.555 0 01-2.083.796 3.28 3.28 0 00-5.59 2.992A9.314 9.314 0 011.113.604a3.28 3.28 0 001.015 4.38 3.27 3.27 0 01-1.486-.41v.04a3.283 3.283 0 002.632 3.218c-.483.13-.99.15-1.482.056a3.283 3.283 0 003.064 2.279A6.584 6.584 0 010 11.525 9.279 9.279 0 005.028 13c6.034 0 9.334-4.999 9.334-9.334 0-.141-.004-.284-.01-.424a6.663 6.663 0 001.637-1.698z"/></svg></svg>